<mxfile host="app.diagrams.net" agent="Mozilla/5.0 (Windows NT 10.0; Win64; x64) AppleWebKit/537.36 (KHTML, like Gecko) Chrome/135.0.0.0 Safari/537.36" version="26.2.13">
  <diagram name="페이지-1" id="2LYAW-jBYJyQneEXB7vB">
    <mxGraphModel dx="1428" dy="777" grid="1" gridSize="10" guides="1" tooltips="1" connect="1" arrows="1" fold="1" page="1" pageScale="1" pageWidth="827" pageHeight="1169" math="0" shadow="0">
      <root>
        <mxCell id="0" />
        <mxCell id="1" parent="0" />
        <mxCell id="3dm1MHzAWAqK7NMtBp0x-2" value="USER" style="rounded=0;whiteSpace=wrap;html=1;" vertex="1" parent="1">
          <mxGeometry x="40" y="80" width="80" height="440" as="geometry" />
        </mxCell>
        <mxCell id="3dm1MHzAWAqK7NMtBp0x-19" style="edgeStyle=orthogonalEdgeStyle;rounded=0;orthogonalLoop=1;jettySize=auto;html=1;" edge="1" parent="1">
          <mxGeometry relative="1" as="geometry">
            <mxPoint x="200" y="370" as="sourcePoint" />
            <mxPoint x="120" y="370" as="targetPoint" />
          </mxGeometry>
        </mxCell>
        <mxCell id="3dm1MHzAWAqK7NMtBp0x-6" value="Front Web Page" style="rounded=0;whiteSpace=wrap;html=1;" vertex="1" parent="1">
          <mxGeometry x="200" y="80" width="80" height="440" as="geometry" />
        </mxCell>
        <mxCell id="3dm1MHzAWAqK7NMtBp0x-13" style="edgeStyle=orthogonalEdgeStyle;rounded=0;orthogonalLoop=1;jettySize=auto;html=1;" edge="1" parent="1" source="3dm1MHzAWAqK7NMtBp0x-8" target="3dm1MHzAWAqK7NMtBp0x-9">
          <mxGeometry relative="1" as="geometry">
            <Array as="points">
              <mxPoint x="490" y="150" />
              <mxPoint x="490" y="150" />
            </Array>
          </mxGeometry>
        </mxCell>
        <mxCell id="3dm1MHzAWAqK7NMtBp0x-18" style="edgeStyle=orthogonalEdgeStyle;rounded=0;orthogonalLoop=1;jettySize=auto;html=1;" edge="1" parent="1" source="3dm1MHzAWAqK7NMtBp0x-8" target="3dm1MHzAWAqK7NMtBp0x-6">
          <mxGeometry relative="1" as="geometry" />
        </mxCell>
        <mxCell id="3dm1MHzAWAqK7NMtBp0x-8" value="BACKEND SERVER" style="rounded=0;whiteSpace=wrap;html=1;" vertex="1" parent="1">
          <mxGeometry x="360" y="80" width="80" height="440" as="geometry" />
        </mxCell>
        <mxCell id="3dm1MHzAWAqK7NMtBp0x-15" style="edgeStyle=orthogonalEdgeStyle;rounded=0;orthogonalLoop=1;jettySize=auto;html=1;" edge="1" parent="1" source="3dm1MHzAWAqK7NMtBp0x-9" target="3dm1MHzAWAqK7NMtBp0x-8">
          <mxGeometry relative="1" as="geometry">
            <Array as="points">
              <mxPoint x="480" y="220" />
              <mxPoint x="480" y="220" />
            </Array>
          </mxGeometry>
        </mxCell>
        <mxCell id="3dm1MHzAWAqK7NMtBp0x-9" value="ES SERVER" style="rounded=0;whiteSpace=wrap;html=1;" vertex="1" parent="1">
          <mxGeometry x="520" y="80" width="80" height="440" as="geometry" />
        </mxCell>
        <mxCell id="3dm1MHzAWAqK7NMtBp0x-11" value="opt" style="shape=umlFrame;whiteSpace=wrap;html=1;pointerEvents=0;" vertex="1" parent="1">
          <mxGeometry x="380" y="160" width="180" height="90" as="geometry" />
        </mxCell>
        <mxCell id="3dm1MHzAWAqK7NMtBp0x-14" value="&lt;span style=&quot;font-size: 10px;&quot;&gt;전송 내역 확인&lt;/span&gt;" style="text;html=1;align=center;verticalAlign=middle;whiteSpace=wrap;rounded=0;fillColor=#60a917;fontColor=#ffffff;strokeColor=#2D7600;" vertex="1" parent="1">
          <mxGeometry x="440" y="100" width="80" height="30" as="geometry" />
        </mxCell>
        <mxCell id="3dm1MHzAWAqK7NMtBp0x-16" value="&lt;span style=&quot;font-size: 10px;&quot;&gt;대상 정보 출력&lt;/span&gt;" style="text;html=1;align=center;verticalAlign=middle;whiteSpace=wrap;rounded=0;fillColor=#1ba1e2;fontColor=#ffffff;strokeColor=#006EAF;" vertex="1" parent="1">
          <mxGeometry x="440" y="170" width="80" height="30" as="geometry" />
        </mxCell>
        <mxCell id="3dm1MHzAWAqK7NMtBp0x-17" value="&lt;span style=&quot;color: rgb(0, 0, 0); font-family: Helvetica; font-size: 10px; font-style: normal; font-variant-ligatures: normal; font-variant-caps: normal; font-weight: 400; letter-spacing: normal; orphans: 2; text-align: left; text-indent: 0px; text-transform: none; widows: 2; word-spacing: 0px; -webkit-text-stroke-width: 0px; white-space: nowrap; text-decoration-thickness: initial; text-decoration-style: initial; text-decoration-color: initial; float: none; display: inline !important;&quot;&gt;전송 대상&lt;/span&gt;" style="text;whiteSpace=wrap;html=1;" vertex="1" parent="1">
          <mxGeometry x="380" y="190" width="90" height="40" as="geometry" />
        </mxCell>
        <mxCell id="3dm1MHzAWAqK7NMtBp0x-20" value="&lt;span style=&quot;font-size: 10px;&quot;&gt;FCM 메시지 전송&lt;/span&gt;" style="text;html=1;align=center;verticalAlign=middle;whiteSpace=wrap;rounded=0;fillColor=#1ba1e2;fontColor=#ffffff;strokeColor=#006EAF;" vertex="1" parent="1">
          <mxGeometry x="120" y="320" width="80" height="30" as="geometry" />
        </mxCell>
        <mxCell id="3dm1MHzAWAqK7NMtBp0x-21" value="&lt;span style=&quot;font-size: 10px;&quot;&gt;FCM 서비스 요청&lt;/span&gt;" style="text;html=1;align=center;verticalAlign=middle;whiteSpace=wrap;rounded=0;fillColor=#60a917;fontColor=#ffffff;strokeColor=#2D7600;" vertex="1" parent="1">
          <mxGeometry x="280" y="260" width="80" height="30" as="geometry" />
        </mxCell>
      </root>
    </mxGraphModel>
  </diagram>
</mxfile>
